<svg xmlns="http://www.w3.org/2000/svg" width="148" height="106" viewBox="0 0 148 106" fill="none"><mask id="mask0_2_94" style="mask-type:luminance" maskUnits="userSpaceOnUse" x="0" y="0" width="146" height="105"><path d="M145.992 0H0V104.027H145.992V0Z" fill="white"></path></mask><g mask="url(#mask0_2_94)"><path d="M30.6932 0L27.8475 1.95199V30.7158L30.6932 28.7638V0Z" fill="black"></path><path fill-rule="evenodd" clip-rule="evenodd" d="M27.8476 30.7158V92.0157L25.0018 90.0827V28.769L27.8476 30.7158Z" fill="black"></path><path d="M27.8284 91.9983V104.01H30.6741V90.0654L27.8284 91.9983Z" fill="black"></path><path d="M19.3086 0L16.4629 1.95199V30.7158L19.3086 28.7638V0Z" fill="black"></path><path fill-rule="evenodd" clip-rule="evenodd" d="M16.4629 30.7158V92.0157L13.6172 90.0827V28.769L16.4629 30.7158Z" fill="black"></path><path d="M16.4629 91.9983V104.01H19.3086V90.0654L16.4629 91.9983Z" fill="black"></path><path d="M13.6362 0L10.7905 1.95199V30.7158L13.6362 28.7638V0Z" fill="black"></path><path d="M10.7715 91.9983V104.01H13.6172V90.0654L10.7715 91.9983Z" fill="black"></path><path d="M25.0001 0L22.1544 1.95199V30.7158L25.0001 28.7638V0Z" fill="black"></path><path fill-rule="evenodd" clip-rule="evenodd" d="M22.1544 30.7158V92.0157L19.3086 90.0827V28.769L22.1544 30.7158Z" fill="black"></path><path d="M22.1544 91.9983V104.01H25.0001V90.0654L22.1544 91.9983Z" fill="black"></path><path d="M35.6971 104.009H37.8742V35.9949L35.6971 34.4881V104.009Z" fill="black"></path><path d="M32.1065 104.027H34.2837V30.2429L32.1065 28.7551V104.027Z" fill="black"></path><path d="M7.18098 7.22601V104.009H9.35813V5.72607L7.18098 7.22601Z" fill="black"></path><path d="M3.56625 12.9954V104.025H5.74342V11.4903L3.56625 12.9954Z" fill="black"></path><path d="M0 18.7423V104.01H2.17716V17.2354L0 18.7423Z" fill="black"></path><path d="M39.3049 104.009H41.482V41.7401L39.3049 40.2333V104.009Z" fill="black"></path><path d="M42.8954 104.027H45.069V47.5061L42.8919 46.0182L42.8954 104.027Z" fill="black"></path><mask id="mask1_2_94" style="mask-type:luminance" maskUnits="userSpaceOnUse" x="0" y="0" width="146" height="105"><path d="M145.992 0H0V104.027H145.992V0Z" fill="white"></path></mask><g mask="url(#mask1_2_94)"><path d="M62.4101 34.6908H70.0796C71.8981 34.5918 73.6825 35.2144 75.0453 36.4228C75.9897 37.4303 76.5014 38.7679 76.4707 40.1484V40.1969C76.5096 41.4084 76.1225 42.5952 75.3771 43.5508C74.6315 44.5065 73.5746 45.1705 72.3901 45.4276L77.0371 51.9677H73.4483L69.2205 45.9472H65.4342V51.9677H62.4101V34.6908ZM69.8578 43.2539C72.0211 43.2539 73.398 42.1436 73.398 40.3666V40.3164C73.398 38.4406 72.0956 37.4533 69.8336 37.4533H65.4325V43.2521L69.8578 43.2539Z" fill="black"></path><path d="M79.6611 43.3751V43.3266C79.6527 42.1767 79.8751 41.0367 80.3151 39.9742C80.755 38.9115 81.4037 37.948 82.2225 37.1405C83.0415 36.3331 84.0142 35.6981 85.0829 35.2733C86.1513 34.8482 87.2944 34.6419 88.4441 34.6665C89.5901 34.6357 90.7303 34.8366 91.7964 35.2575C92.8626 35.6782 93.8327 36.3102 94.6485 37.1152C95.4644 37.9204 96.1091 38.8823 96.5438 39.9428C96.9787 41.0033 97.1947 42.1407 97.1788 43.2868V43.3353C97.1873 44.4854 96.9649 45.6253 96.5248 46.688C96.0849 47.7505 95.4362 48.714 94.6173 49.5214C93.7984 50.3289 92.8259 50.9638 91.7572 51.3889C90.6885 51.8138 89.5454 52.02 88.3957 51.9955C87.25 52.0265 86.1096 51.8254 85.0435 51.4046C83.9773 50.9837 83.0072 50.3519 82.1914 49.5467C81.3756 48.7416 80.731 47.7799 80.2961 46.7193C79.8613 45.6588 79.6454 44.5212 79.6611 43.3751ZM94.0906 43.3751V43.3266C94.1217 42.559 93.9978 41.793 93.7257 41.0745C93.4537 40.3559 93.0394 39.6997 92.5075 39.1453C91.9756 38.5908 91.3374 38.1494 90.6307 37.8477C89.9242 37.546 89.1641 37.3901 88.3957 37.3892C87.6329 37.3877 86.8779 37.5406 86.1759 37.8391C85.4741 38.1375 84.84 38.5752 84.3121 39.1256C83.7842 39.6761 83.3733 40.3278 83.1044 41.0415C82.8356 41.7554 82.7142 42.5162 82.7475 43.2781V43.3266C82.7178 44.0939 82.843 44.8595 83.1154 45.5773C83.388 46.2951 83.8025 46.9507 84.3339 47.505C84.8655 48.059 85.5032 48.5004 86.2092 48.8028C86.915 49.105 87.6747 49.2617 88.4425 49.264C89.2053 49.2658 89.9604 49.1126 90.6622 48.8142C91.3641 48.5158 91.9981 48.0781 92.526 47.5277C93.0542 46.9772 93.465 46.3254 93.7338 45.6117C94.0028 44.898 94.124 44.1372 94.0906 43.3751Z" fill="black"></path><path d="M104.663 45.1522L97.8283 34.689H101.417L106.211 42.3099L111.078 34.689H114.543L107.708 45.0812V51.966H104.663V45.1522Z" fill="black"></path><path d="M120.6 34.6595H123.402L130.974 51.9955H127.777L126.031 47.8386H117.891L116.12 51.9955H113.023L120.6 34.6595ZM124.929 45.1591L121.955 38.2743L119.011 45.1591H124.929Z" fill="black"></path><path d="M133.922 34.6908H136.946V49.1999H145.996V51.9712H133.925L133.922 34.6908Z" fill="black"></path><path d="M62.4101 60.704H70.1297C70.9445 60.6442 71.7631 60.7487 72.5368 61.0113C73.3103 61.2741 74.0231 61.6897 74.633 62.2334C75.0095 62.6075 75.306 63.0542 75.5048 63.5463C75.7032 64.0385 75.7997 64.566 75.7882 65.0965V65.1467C75.8084 65.9603 75.5853 66.7613 75.1474 67.4472C74.7096 68.1333 74.077 68.6728 73.3305 68.997C74.3024 69.1831 75.1776 69.7054 75.8027 70.4727C76.4276 71.2398 76.7622 72.2026 76.7478 73.1919V73.2405C76.7478 76.3252 74.2156 77.9775 70.3809 77.9775H62.4136L62.4101 60.704ZM72.759 65.5936C72.759 64.2079 71.7024 63.3973 69.7349 63.3973H65.3839V67.9872H69.5149C71.4807 67.9872 72.7607 67.2217 72.7607 65.6421L72.759 65.5936ZM73.7185 72.868C73.7185 71.3872 72.5633 70.5489 70.1783 70.5489H65.3839V75.2929H70.4069C72.4714 75.2929 73.7255 74.5031 73.7255 72.9235L73.7185 72.868Z" fill="black"></path><path d="M86.1579 60.6746H88.9603L96.5327 78.0105H93.3371L91.5913 73.8536H83.4508L81.6807 78.0105H78.5838L86.1579 60.6746ZM90.488 71.1742L87.5141 64.2894L84.5696 71.1742H90.488Z" fill="black"></path><path d="M99.481 60.704H102.283L111.502 72.6551V60.704H114.476V77.9775H111.944L102.455 65.6802V77.9775H99.481V60.704Z" fill="black"></path><path d="M118.901 60.704H121.925V69.3902L130.086 60.704H133.848L126.668 68.131L134.167 77.9775H130.479L124.604 70.2042L121.925 72.9755V77.9845H118.901V60.704Z" fill="black"></path><path d="M62.4101 86.7069H69.1944C73.2266 86.7069 75.7329 89.0019 75.7329 92.4816V92.5318C75.7329 96.3821 72.6603 98.4289 68.8498 98.4289H65.4325V103.982H62.4084L62.4101 86.7069ZM68.9503 95.6892C71.2365 95.6892 72.6619 94.4059 72.6619 92.6045V92.5561C72.6619 90.507 71.2123 89.4713 68.9503 89.4713H65.4342V95.6892H68.9503Z" fill="black"></path><path d="M78.5059 86.7053H81.5299V101.214H90.5763V103.986H78.5059V86.7053Z" fill="black"></path><path d="M99.7961 86.6758H102.598L110.169 104.012H106.974L105.228 99.8549H97.087L95.3169 104.012H92.22L99.7961 86.6758ZM104.126 97.1753L101.152 90.2905L98.208 97.1753H104.126Z" fill="black"></path><path d="M112.133 101.762L122.31 89.3795H112.478V86.6758H126.265V88.9274L116.088 101.31H126.265V104.013H112.129L112.133 101.762Z" fill="black"></path><path d="M135.605 86.6758H138.408L145.979 104.012H142.783L141.037 99.8549H132.897L131.127 104.012H128.029L135.605 86.6758ZM139.936 97.1753L136.962 90.2905L134.017 97.1753H139.936Z" fill="black"></path></g></g></svg>