<svg xmlns="http://www.w3.org/2000/svg" xmlns:xlink="http://www.w3.org/1999/xlink" id="white-logo" width="223.206" height="48.064" viewBox="0 0 223.206 48.064"><defs><clipPath id="clip-path"><rect id="Rectangle_4" data-name="Rectangle 4" width="223.206" height="48.064" fill="#fff"></rect></clipPath></defs><path id="Path_1" data-name="Path 1" d="M365.147,125.107h4.589v16.4h13.312v3.456H365.2Z" transform="translate(-283.644 -97.182)" fill="#fff"></path><rect id="Rectangle_1" data-name="Rectangle 1" width="4.446" height="19.856" transform="translate(108.721 27.925)" fill="#fff"></rect><path id="Path_2" data-name="Path 2" d="M552.832,125.107l7.847,14.985,7.675-14.985h4.589L562.6,145.02h-3.8l-10.735-19.913Z" transform="translate(-425.74 -97.182)" fill="#fff"></path><rect id="Rectangle_2" data-name="Rectangle 2" width="4.446" height="19.856" transform="translate(156.369 27.925)" fill="#fff"></rect><path id="Path_3" data-name="Path 3" d="M775.081,132.443v12.52h-4.5V125.107h2.662l13.569,11.925V125.107h4.447v19.856h-2.011Z" transform="translate(-598.58 -97.182)" fill="#fff"></path><g id="Group_2" data-name="Group 2"><g id="Group_1" data-name="Group 1" clip-path="url(#clip-path)"><path id="Path_4" data-name="Path 4" d="M920.737,142.648a17.42,17.42,0,0,1-6.77,1.416c-5.382,0-11.3-3.569-11.3-10.31,0-6.827,6.034-10.169,11.329-10.169a21.891,21.891,0,0,1,5.383.679,16.046,16.046,0,0,1,5.013,2.663l-1.926,2.634a29.126,29.126,0,0,0-3.881-1.813,13.716,13.716,0,0,0-4.618-.68c-4.107,0-7.08,2.493-7.08,6.628a6.733,6.733,0,0,0,7.08,6.827,11.474,11.474,0,0,0,6.459-1.955v-2.832h-6.854l.056-3.059h10.764v7.875a15.188,15.188,0,0,1-3.654,2.1" transform="translate(-701.185 -96)" fill="#fff"></path><path id="Path_5" data-name="Path 5" d="M497.569,10.452C497.569,3.994,503.63,0,509.181,0a15.329,15.329,0,0,1,9.944,3.484l-1.983,2.974a12.12,12.12,0,0,0-7.789-2.945,7.014,7.014,0,1,0-.029,14.021,12.6,12.6,0,0,0,7.959-3l2.237,2.578c-1.3,1.5-4.985,3.852-10.225,3.852-5.127,0-11.726-3.6-11.726-10.509" transform="translate(-386.509 0)" fill="#fff"></path><path id="Path_6" data-name="Path 6" d="M643.389,17.877l-9.829.029-2.1,4.419H627.1l9.772-19.913h3.738l9.348,19.913h-4.5ZM638.517,7.254,635,14.676h6.969l-3.427-7.421Z" transform="translate(-487.129 -1.873)" fill="#fff"></path><path id="Path_7" data-name="Path 7" d="M775.081,10V22.52h-4.5V2.663h2.662l13.569,11.925V2.663h4.447V22.52h-2.011Z" transform="translate(-598.58 -2.069)" fill="#fff"></path><path id="Path_8" data-name="Path 8" d="M377.659,14.741l4.8-3.97-.988-.323.718-3.307-2.566.716-.976-1.523-2.6,2.788.482-5.5-1.364.681-1.9-3.883-1.9,3.883L370,3.626l.481,5.5-2.6-2.788-.976,1.523-2.566-.716.718,3.307-.988.323,4.8,3.97-.856,1.784,4.759-.8-.133,4.773h1.244l-.133-4.773,4.759.8Z" transform="translate(-282.812 -0.329)" fill="#fff"></path><path id="Path_9" data-name="Path 9" d="M8.442,14.806H4.589L4.532,22.68H0V2.824H11.642c4.731,0,8.1,2.38,8.1,5.807,0,3.172-3,5.608-6.572,6.005l.341.113,5.977,7.592v.34H14.928S10.339,16.9,8.442,14.806m3.37-8.667H4.589V11.35l6.883.056c2.549,0,4.051-1.246,4.051-2.719,0-1.444-1.133-2.549-3.711-2.549" transform="translate(0 -2.194)" fill="#fff"></path><rect id="Rectangle_3" data-name="Rectangle 3" width="4.446" height="19.856" transform="translate(30.519 0.631)" fill="#fff"></rect><path id="Path_10" data-name="Path 10" d="M213.966,21.246c-6.032,0-12.463-3.569-12.463-10.424,0-7.166,6.431-10.537,12.463-10.537,5.977,0,12.407,3.768,12.407,10.594,0,6.912-6.431,10.367-12.407,10.367m0-17.477c-4.9,0-8.158,3.116-8.158,7.109,0,3.824,3.257,6.884,8.158,6.884,4.845,0,8.1-2.975,8.1-6.884,0-3.965-3.257-7.109-8.1-7.109" transform="translate(-156.526 -0.221)" fill="#fff"></path></g></g></svg>