<svg xmlns="http://www.w3.org/2000/svg" width="221.001" height="40.478" viewBox="0 0 221.001 40.478"><g id="Rogers_logo" transform="translate(-7.726 -5.756)"><g id="Group_153" data-name="Group 153" transform="translate(7.726 5.756)"><path id="Path_266" data-name="Path 266" d="M13.468,51.025A24.961,24.961,0,0,1,23.439,40.8c.925-.544,1.9-1,2.991-1.577C22.8,37.1,19.125,36.2,15.227,37.917,11.292,39.658,9.316,42.994,8.3,47a16.491,16.491,0,0,0-.508,3.1,20.464,20.464,0,0,0-.036,2.756c.091.925.2,1.686.344,2.448a19.077,19.077,0,0,0,4.134,8.9,3.685,3.685,0,0,0-.127-.78A17.113,17.113,0,0,1,13.468,51.025Z" transform="translate(-7.726 -31.347)" fill="#ee2722"></path><path id="Path_267" data-name="Path 267" d="M61.612,10.84c5.983,2.484,10.08,6.907,12.908,12.618.145.308.308.616.489.961,2.991-3.408,2.937-9.881-.091-13.507a13.652,13.652,0,0,0-7.669-4.5c-1.015-.236-1.795-.4-2.955-.562a13.188,13.188,0,0,0-3.046-.018c-.761.127-1.541.254-2.3.4A18.476,18.476,0,0,0,50.1,10.423c.236-.054.453-.109.689-.163A16.79,16.79,0,0,1,61.612,10.84Z" transform="translate(-42.418 -5.756)" fill="#ee2722"></path><path id="Path_268" data-name="Path 268" d="M469.748,32.874a14.914,14.914,0,0,0-6.237-.834c-5.729.344-9.844,3.1-11.929,8.485a19.411,19.411,0,0,0-.054,14,12.48,12.48,0,0,0,7.252,7.542,15.579,15.579,0,0,0,7.107.961,12.777,12.777,0,0,0,10.352-6.092,18.33,18.33,0,0,0,2.52-9.355c-.181-1.487-.254-3.01-.58-4.478C477.109,38.277,474.5,34.669,469.748,32.874Zm2.121,20.885a7.482,7.482,0,0,1-7.415,4.75c-3.445-.036-6.037-1.487-7.306-4.75a16.728,16.728,0,0,1,.036-12.528c1.251-3.155,3.916-4.732,7.451-4.7a7.433,7.433,0,0,1,7.27,4.841,11.6,11.6,0,0,1,.707,2.339c.218,1.269.326,2.574.417,3.39A18.244,18.244,0,0,1,471.87,53.759Z" transform="translate(-370.022 -27.246)" fill="#ee2722"></path><path id="Path_269" data-name="Path 269" d="M323.35,51.749c.4-.218.653-.344.906-.489a9,9,0,0,0,1.777-14.631,10.3,10.3,0,0,0-6.762-2.466c-3.227-.091-6.472-.036-9.7-.036-.2,0-.4.036-.725.073V63.3a2.454,2.454,0,0,0,.018.635c.054.163.218.435.326.435,1.65.036,3.281.018,5.022.018V52.692c4.079-.417,5.022.2,6.581,2.883,1.178,2.012,2.284,4.043,3.445,6.055.526.906.888,2.139,1.686,2.611s2.049.145,3.1.163c.906.018,1.813,0,2.9,0-1.324-2.321-2.5-4.46-3.735-6.563C326.9,55.611,325.943,53.109,323.35,51.749Zm-3.9-3.735a8.053,8.053,0,0,1-1.614.109c-1.16.018-2.339,0-3.571,0V38.406a48.49,48.49,0,0,1,5.475.344,4.293,4.293,0,0,1,3.789,4.732C323.477,45.911,322.063,47.525,319.452,48.014Z" transform="translate(-254.244 -28.97)" fill="#ee2722"></path><path id="Path_270" data-name="Path 270" d="M990.559,55.774a8.639,8.639,0,0,0-3.753-4.025c.471-.254.761-.417,1.052-.562a8.987,8.987,0,0,0,1.614-14.631,10.363,10.363,0,0,0-6.69-2.393c-3.227-.091-6.454-.036-9.7-.036a3.644,3.644,0,0,0-.671.109V63.352a1.348,1.348,0,0,0,.018.544c.109.2.308.489.471.489,1.559.036,3.118.018,4.8.018V52.674c4.17-.363,5.04.2,6.781,3.155.127.218.235.417.363.635,1.36,2.411,2.719,4.841,4.115,7.234.163.272.471.671.725.671,1.867.054,3.717.036,5.711.036-.2-.381-.327-.653-.472-.906Q992.753,59.635,990.559,55.774Zm-7.778-7.741a43.146,43.146,0,0,1-5.094.036V39.856c0-1.342,0-1.36,1.4-1.342a28.982,28.982,0,0,1,3.97.181,4.7,4.7,0,0,1-.272,9.337Z" transform="translate(-797.501 -28.97)" fill="#ee2722"></path><path id="Path_271" data-name="Path 271" d="M662.353,46.544c-2.738,0-5.421,0-8.1.018a.652.652,0,0,0-.49.254c-.453,1.305-.87,2.611-1.36,4.061h4.623c0,2.248.018,4.387-.018,6.527,0,.2-.326.471-.544.58a9.882,9.882,0,0,1-4.7.707c-3.553-.236-6.309-1.759-7.8-5.113a15.294,15.294,0,0,1-.943-8.158c.671-5.838,5.348-9.5,11.132-8.539a51.757,51.757,0,0,1,5.584,1.577c.4-1.233.87-2.683,1.378-4.242a19.693,19.693,0,0,0-9.736-1.994,14.149,14.149,0,0,0-13.217,9.808,18.955,18.955,0,0,0-.671,9.645c.906,4.931,3.481,8.7,8.322,10.461,5.511,2.012,10.914,1.305,16.153-1.106a1.19,1.19,0,0,0,.435-.925c.036-4.26.018-8.521.018-12.781C662.407,47.07,662.371,46.853,662.353,46.544Z" transform="translate(-523.049 -27.41)" fill="#ee2722"></path><path id="Path_272" data-name="Path 272" d="M832.681,60.271c-1.251,0-1.251,0-1.251-1.2,0-2.176.036-4.351-.018-6.527-.018-.888.181-1.2,1.142-1.178,3.227.073,6.472,0,9.7.036.689,0,.907-.2.87-.888a18.338,18.338,0,0,1,0-2.448c.054-.816-.2-1.106-1.052-1.088-3.173.054-6.345.018-9.518.018a10.239,10.239,0,0,1-1.051-.073V38.715h1.142c3.227,0,6.472,0,9.7-.018.308,0,.834-.109.907-.308.489-1.287.888-2.611,1.341-3.989H826.1V64.568h18.51v-4.3H832.681Z" transform="translate(-677.731 -29.207)" fill="#ee2722"></path><path id="Path_273" data-name="Path 273" d="M1133.182,47.354c-1.414-.925-2.919-1.7-4.369-2.556a27.593,27.593,0,0,1-3.372-2.085,3.12,3.12,0,0,1,1.016-5.62,11.1,11.1,0,0,1,4.1-.344,44.659,44.659,0,0,1,5.022,1c0-1.414.018-2.883-.036-4.351,0-.2-.381-.526-.635-.58a25.379,25.379,0,0,0-3.282-.58c-2.81-.236-5.6-.326-8.285.816-5.348,2.3-6.726,8.72-2.683,12.727a13.5,13.5,0,0,0,2.5,1.922c1.469.888,3.009,1.65,4.5,2.52a16.41,16.41,0,0,1,2.557,1.686,3.49,3.49,0,0,1-.762,5.928,7.984,7.984,0,0,1-3.046.725,14.838,14.838,0,0,1-7.451-1.759c-.49,1.5-.961,2.919-1.45,4.442,4.478,1.885,8.974,2.7,13.633,1.124a8.356,8.356,0,0,0,6.074-7C1137.733,51.778,1136.029,49.221,1133.182,47.354Z" transform="translate(-916.301 -27.313)" fill="#ee2722"></path><path id="Path_274" data-name="Path 274" d="M56.722,141.022c-5.711-1.5-9.935-5.04-13.2-9.826-.961-1.414-1.722-2.955-2.611-4.5a12.15,12.15,0,0,0-2.049,8.557,10.528,10.528,0,0,0,5.783,7.868c6.237,3.463,15.066,2.647,21.049-2.1.054-.036.054-.145.109-.272-.2.036-.344.073-.49.109A17.253,17.253,0,0,1,56.722,141.022Z" transform="translate(-33.122 -104.773)" fill="#ee2722"></path><path id="Path_275" data-name="Path 275" d="M141.959,49c.036.145.054.272.091.417A17.309,17.309,0,0,1,140.6,62.4a25.326,25.326,0,0,1-10.678,10.388c-.653.344-1.342.671-2.121,1.07a12.184,12.184,0,0,0,8.847,2.067c4.043-.671,6.69-3.245,8.267-6.871a19.26,19.26,0,0,0-.036-15.392A14.043,14.043,0,0,0,141.959,49Z" transform="translate(-106.031 -41.16)" fill="#ee2722"></path></g></g></svg>